:SAMPLES-PER-SECOND 24
:FULLY-SPECIFIED
:DEGREES
188
root  -0.213926 39.4583 26.0623 -1.55142 -73.6728 5.93571
RightUpLeg  -11.6037 1.97598 -10.4314
RightLeg  30.633 0.345345 -0.0159247
RightFoot  -13.907 0.103652 8.83483
RightToes  -2.08645e-008 3.77894e-005 6.81332e-007
Spine  -0.99599 0.885136 -0.486359
Spine1  7.45544 1.13036 -1.03664
HEad  -34.9823 45.094 -21.1704
LeftShoulder1  5.88356 -11.7002 -32.7005
LeftArm  10.7727 23.4929 -24.6386
LeftForeArm  167.249 -61.3527 -161.635
LeftHand  -0.184809 -3.38241 2.69397
RightShoulder  3.77512 6.61013 31.4334
RightArm  17.0835 -30.4814 25.2462
RightForeArm  151.384 72.8577 145.887
RightHand  -0.399151 7.69499 -3.90114
LeftUpLeg  -12.2415 -2.38635 11.8146
LeftLeg  24.5894 6.16174 3.40969
LeftFoot  -0.367613 1.74316 -17.9989
LeftToes  1.24767e-006 1.47042e-008 1.32732e-009
189
root  0.0288954 38.0912 26.3241 -0.469971 -73.2353 3.93336
RightUpLeg  -12.8257 2.24932 -10.1748
RightLeg  35.7905 -1.15996 -1.16186
RightFoot  -21.3882 0.575466 8.17883
RightToes  -2.08645e-008 3.77894e-005 6.81332e-007
Spine  0.158697 1.23138 1.84637
Spine1  7.70691 1.82846 -2.67046
HEad  -36.722 44.5126 -22.5611
LeftShoulder1  6.18327 -11.8993 -34.1373
LeftArm  9.78069 16.957 -21.1996
LeftForeArm  166.824 -64.8645 -158.724
LeftHand  -0.336922 -3.3998 4.70695
RightShoulder  3.75132 6.55111 31.415
RightArm  16.8628 -26.3714 24.7504
RightForeArm  149.655 74.6504 141.474
RightHand  -0.562882 8.69286 -5.01172
LeftUpLeg  -14.3649 -2.80773 12.1239
LeftLeg  31.8757 5.19717 3.85946
LeftFoot  -11.1465 0.114985 -19.4316
LeftToes  1.24767e-006 1.47042e-008 1.32732e-009
190
root  0.228144 37.418 26.5505 0.0724335 -73.1823 3.18649
RightUpLeg  -13.8743 2.63442 -10.1457
RightLeg  38.4873 -2.50528 -2.39013
RightFoot  -24.3626 0.742712 7.93089
RightToes  -2.08645e-008 3.77894e-005 6.81332e-007
Spine  -0.610192 1.89525 3.79278
Spine1  9.80972 3.017 -4.88419
HEad  -39.257 43.5023 -23.1769
LeftShoulder1  6.79345 -12.4856 -36.4228
LeftArm  6.03046 11.9373 -20.9261
LeftForeArm  169.132 -68.2782 -155.474
LeftHand  -0.396571 -3.21604 5.59441
RightShoulder  3.71769 6.43783 31.5038
RightArm  13.9308 -24.46 26.3046
RightForeArm  145.05 76.7697 134.189
RightHand  -0.67663 8.9286 -5.85722
LeftUpLeg  -15.4237 -4.25071 11.5099
LeftLeg  34.6513 7.64346 5.99851
LeftFoot  -15.0638 -0.493866 -17.7518
LeftToes  1.24767e-006 1.47042e-008 1.32732e-009
191
root  0.280964 37.9178 26.744 0.120743 -72.9302 3.34456
RightUpLeg  -12.4173 2.64961 -10.5285
RightLeg  35.0381 -2.40613 -2.06032
RightFoot  -22.1268 0.649327 8.44244
RightToes  -2.08645e-008 3.77894e-005 6.81332e-007
Spine  -1.36139 2.30246 3.05471
Spine1  10.2556 3.20609 -3.9262
HEad  -40.2942 43.3323 -23.1259
LeftShoulder1  7.39025 -13.0961 -38.3974
LeftArm  1.11073 14.778 -25.5062
LeftForeArm  169.868 -68.9003 -154.812
LeftHand  -0.359094 -3.07669 5.15332
RightShoulder  3.8348 6.52754 32.3431
RightArm  11.4683 -26.0979 28.1696
RightForeArm  142.266 77.2635 131.66
RightHand  -0.740354 8.40942 -6.5917
LeftUpLeg  -13.7302 -6.22397 10.7314
LeftLeg  30.6124 10.1822 6.75472
LeftFoot  -12.7417 -0.137598 -17.1566
LeftToes  1.24767e-006 1.47042e-008 1.32732e-009
192
root  0.234271 39.3315 26.8258 2.03606 -72.3688 2.54219
RightUpLeg  -10.0747 1.5939 -10.4797
RightLeg  26.7526 -1.45226 -1.02129
RightFoot  -13.7068 0.0982156 9.25334
RightToes  -2.08645e-008 3.77894e-005 6.81332e-007
Spine  -2.57919 1.97444 1.8688
Spine1  9.26202 2.47907 -2.303
HEad  -38.4858 44.7078 -22.4747
LeftShoulder1  7.28312 -12.9732 -38.0926
LeftArm  -3.02099 22.1148 -33.3964
LeftForeArm  166.685 -67.7824 -155.749
LeftHand  -0.420772 -2.12688 6.69665
RightShoulder  3.93927 6.63211 32.98
RightArm  10.6612 -28.8149 31.6283
RightForeArm  141.259 77.3577 131.028
RightHand  -0.696424 8.33971 -6.24866
LeftUpLeg  -11.8827 -3.94959 11.1243
LeftLeg  22.8025 8.03097 4.02392
LeftFoot  -4.24039 1.13199 -17.7163
LeftToes  1.24767e-006 1.47042e-008 1.32732e-009
193
root  0.186771 40.8381 26.7544 5.03084 -71.6329 1.6626
RightUpLeg  -9.10629 -0.312517 -10.0095
RightLeg  18.7947 -1.08618 -0.660128
RightFoot  -3.57713 -0.707764 10.0845
RightToes  -2.08645e-008 3.77894e-005 6.81332e-007
Spine  -4.12659 1.69206 1.25614
Spine1  7.35335 2.10414 -2.0463
HEad  -34.676 45.763 -20.4651
LeftShoulder1  7.08631 -12.8104 -37.3556
LeftArm  -5.34204 28.1241 -38.2851
LeftForeArm  162.986 -66.8363 -156.362
LeftHand  -0.444846 -1.92627 7.24864
RightShoulder  4.08964 6.77134 33.911
RightArm  9.97263 -31.6344 34.1785
RightForeArm  142.62 77.1688 132.108
RightHand  -0.614283 8.31033 -5.56523
LeftUpLeg  -12.0194 3.28869 11.8439
LeftLeg  15.3916 0.739355 0.761367
LeftFoot  8.31427 3.18691 -18.5284
LeftToes  1.24767e-006 1.47042e-008 1.32732e-009
194
root  0.239315 41.7587 26.6466 7.3445 -70.8818 0.699539
RightUpLeg  -8.95869 -2.25006 -9.24104
RightLeg  15.6153 -1.58105 -1.00932
RightFoot  0.748437 -1.06642 10.1038
RightToes  -2.08645e-008 3.77894e-005 6.81332e-007
Spine  -5.0811 1.74477 2.0244
Spine1  6.47523 2.34034 -3.0237
HEad  -33.0683 45.3961 -18.9853
LeftShoulder1  6.97903 -12.8343 -36.6578
LeftArm  -5.31655 30.2937 -38.2454
LeftForeArm  162.932 -65.7913 -157.433
LeftHand  -0.277163 -2.46174 4.30532
RightShoulder  4.32742 7.04252 35.1286
RightArm  9.58227 -32.8958 34.4023
RightForeArm  146.254 76.1864 136.411
RightHand  -0.361214 8.55422 -3.38314
LeftUpLeg  -12.4491 6.86082 12.5923
LeftLeg  10.5495 -3.62224 -0.21825
LeftFoot  17.132 4.89458 -19.5598
LeftToes  1.24767e-006 1.47042e-008 1.32732e-009
195
root  0.470173 42.024 26.5295 8.01048 -70.0378 -0.358444
RightUpLeg  -8.5948 -2.03468 -8.66366
RightLeg  17.6727 -2.13298 -1.06648
RightFoot  0.340941 -1.03027 10.0638
RightToes  -2.08645e-008 3.77894e-005 6.81332e-007
Spine  -3.71434 1.66002 3.09788
Spine1  6.10311 2.3614 -3.56108
HEad  -34.1258 44.4148 -19.5603
LeftShoulder1  6.77571 -12.715 -35.7418
LeftArm  -3.13794 28.7031 -35.8286
LeftForeArm  164.837 -64.9682 -158.436
LeftHand  -0.223208 -2.57603 3.46579
RightShoulder  4.31528 7.09367 34.8225
RightArm  10.9723 -31.3103 33.9823
RightForeArm  148.889 75.2991 139.642
RightHand  -0.404498 8.09323 -3.85571
LeftUpLeg  -12.6152 4.66402 13.4546
LeftLeg  10.3756 -4.36077 0.355005
LeftFoot  19.1054 5.25749 -19.6029
LeftToes  1.24767e-006 1.47042e-008 1.32732e-009
196
root  0.758746 41.672 26.3791 6.76682 -69.488 0.179871
RightUpLeg  -8.50932 -0.363011 -8.74342
RightLeg  22.0821 -0.521284 -0.449623
RightFoot  -1.09508 -0.996461 10.9991
RightToes  -2.08645e-008 3.77894e-005 6.81332e-007
Spine  -1.74037 1.54067 3.06408
Spine1  5.81816 2.2811 -3.50009
HEad  -35.1592 43.3445 -20.2879
LeftShoulder1  6.40359 -12.3191 -34.4588
LeftArm  -0.144449 24.7315 -33.286
LeftForeArm  165.468 -65.0076 -158.468
LeftHand  -0.290503 -2.19541 4.64414
RightShoulder  4.05312 6.88182 33.14
RightArm  13.1141 -28.2686 33.321
RightForeArm  150.12 74.7904 141.246
RightHand  -0.349113 7.24784 -3.55959
LeftUpLeg  -13.1878 -0.0416163 14.0682
LeftLeg  13.8998 -4.07946 -0.073365
LeftFoot  15.9657 4.64723 -19.3826
LeftToes  1.24767e-006 1.47042e-008 1.32732e-009
197
root  0.97755 40.6284 26.2676 4.78094 -68.767 2.27895
RightUpLeg  -8.60829 0.791208 -9.50933
RightLeg  25.9391 0.853009 0.220841
RightFoot  -6.70749 -0.491525 10.7695
RightToes  -2.08645e-008 3.77894e-005 6.81332e-007
Spine  -1.10088 1.56018 2.5542
Spine1  5.58413 2.35042 -3.54113
HEad  -34.9591 42.4029 -19.611
LeftShoulder1  6.18863 -12.0641 -33.7507
LeftArm  2.59987 18.872 -29.6987
LeftForeArm  162.796 -66.483 -156.708
LeftHand  -0.290907 -2.15352 4.67536
RightShoulder  3.94664 6.81136 32.374
RightArm  14.4314 -25.1206 30.7452
RightForeArm  148.313 74.662 141.252
RightHand  -0.488653 7.11705 -4.88086
LeftUpLeg  -14.0704 -3.96257 13.9186
LeftLeg  17.7764 -3.26055 -0.842858
LeftFoot  6.84271 3.15333 -19.7912
LeftToes  1.24767e-006 1.47042e-008 1.32732e-009
198
root  1.16261 39.1667 26.1983 3.57655 -68.4911 3.57278
RightUpLeg  -8.66466 1.53448 -9.76225
RightLeg  28.7489 -0.622386 -0.607439
RightFoot  -16.7679 0.2962 8.81808
RightToes  -2.08645e-008 3.77894e-005 6.81332e-007
Spine  -0.924517 1.97574 3.46258
Spine1  5.78469 3.08044 -4.88876
HEad  -34.4696 41.7478 -18.7318
LeftShoulder1  6.35494 -12.1742 -34.5234
LeftArm  4.82205 10.8335 -24.6873
LeftForeArm  158.823 -69.5814 -152.456
LeftHand  -0.358905 -2.66776 5.37999
RightShoulder  3.93876 6.80505 32.321
RightArm  14.3109 -21.7519 28.1708
RightForeArm  142.276 76.2456 135.31
RightHand  -0.535937 7.71543 -5.10401
LeftUpLeg  -15.1628 -5.52584 13.3093
LeftLeg  22.0349 -1.17798 -0.183786
LeftFoot  -5.21926 1.06494 -18.918
LeftToes  1.24767e-006 1.47042e-008 1.32732e-009
199
root  1.40126 38.005 26.0716 3.36609 -68.2692 3.24043
RightUpLeg  -9.16655 3.06923 -8.86293
RightLeg  31.7003 -3.94375 -2.87751
RightFoot  -24.2149 0.702089 7.66467
RightToes  -2.08645e-008 3.77894e-005 6.81332e-007
Spine  -0.47949 2.28067 5.25794
Spine1  7.33917 3.84614 -6.68188
HEad  -36.257 40.877 -19.5961
LeftShoulder1  6.70744 -12.4661 -35.9625
LeftArm  4.79021 3.98273 -21.6923
LeftForeArm  157.357 -73.1469 -146.252
LeftHand  -0.474307 -2.95314 6.83254
RightShoulder  3.81446 6.62959 31.7514
RightArm  12.1493 -19.2981 28.5268
RightForeArm  131.494 78.8944 120.549
RightHand  -0.551859 8.32274 -5.03816
LeftUpLeg  -17.1841 -7.62427 13.2677
LeftLeg  27.2608 2.27153 1.63429
LeftFoot  -12.5261 -0.0992032 -16.9446
LeftToes  1.24767e-006 1.47042e-008 1.32732e-009
